<svg xmlns="http://www.w3.org/2000/svg" width="600" height="600" viewBox="0 0 600 600" role="img" aria-label="Сорочка клітинка COS">
  <defs>
    <linearGradient id="bg23" x1="0" y1="0" x2="0" y2="1">
      <stop offset="0" stop-color="#ffffff"/><stop offset="1" stop-color="#eef1f5"/>
    </linearGradient>
  </defs>
  <rect width="600" height="600" fill="url(#bg23)"/>
  <ellipse cx="300" cy="455" rx="120" ry="20" fill="#000" opacity="0.06"/>
  <g transform="translate(45,5)">
      <path fill="#33518f" stroke="#1c2f53" stroke-width="3" stroke-linejoin="round" d="M205 152 L255 168 L305 152 L300 178 L352 205 L332 252 L302 240 L302 432 L208 432 L208 240 L178 252 L158 205 L210 178 Z"/>
      <path fill="none" stroke="#1c2f53" stroke-width="2.5" d="M255 168 L255 425"/>
      <path fill="#33518f" stroke="#1c2f53" stroke-width="3" stroke-linejoin="round" d="M232 150 L255 178 L240 158 Z"/><path fill="#33518f" stroke="#1c2f53" stroke-width="3" stroke-linejoin="round" d="M278 150 L255 178 L270 158 Z"/>
      <circle cx="255" cy="230" r="3.2" fill="#27406f"/><circle cx="255" cy="280" r="3.2" fill="#27406f"/><circle cx="255" cy="330" r="3.2" fill="#27406f"/><circle cx="255" cy="380" r="3.2" fill="#27406f"/></g>
  <rect x="0" y="540" width="600" height="60" fill="#0f172a" opacity="0.04"/>
  <text x="300" y="500" text-anchor="middle" font-family="Arial, sans-serif" font-size="26" font-weight="700" fill="#111827"><tspan x="300" dy="0">Сорочка клітинка</tspan></text>
  <text x="300" y="568" text-anchor="middle" font-family="Arial, sans-serif" font-size="20" fill="#6b7280" letter-spacing="1">COS</text>
</svg>